# xmcd
#
# Track frame offsets:
# 150
# 1235
# 27020
# 31482
# 38185
# 43030
# 43572
# 59965
# 67917
# 83670
# 84215
# 93130
# 99832
# 116740
# 128015
# 128550
# 151115
# 178947
# 179550
# 189527
# 202212
# 216520
# 225487
# 226047
# 227257
# 239285
# 252147
# 253242
# 253825
# 265995
# 267615
#
# Disc length: 3604 seconds
#
# Revision: 0
# Processed by: cddbd v1.4PL0 Copyright (c) Steve Scherf et al.
# Submitted via: MacMP3 Pro 5.0 (http://mp3.act2.co.jp/)
#
DISCID=a30e121f
DTITLE=EJ - EJ10
DYEAR=1900
DGENRE=
TTITLE0=10-1
TTITLE1=10-2
TTITLE2=10-3
TTITLE3=10-4
TTITLE4=10-5
TTITLE5=10-6
TTITLE6=10-7
TTITLE7=10-8
TTITLE8=10-9
TTITLE9=10-10
TTITLE10=10-11
TTITLE11=10-12
TTITLE12=10-13
TTITLE13=10-14
TTITLE14=10-15
TTITLE15=10-16
TTITLE16=10-17
TTITLE17=10-18
TTITLE18=10-19
TTITLE19=10-20
TTITLE20=10-21
TTITLE21=10-22
TTITLE22=10-23
TTITLE23=10-24
TTITLE24=10-25
TTITLE25=10-26
TTITLE26=10-27
TTITLE27=10-28
TTITLE28=10-29
TTITLE29=10-30
TTITLE30=10-31
EXTD=
EXTT0=
EXTT1=
EXTT2=
EXTT3=
EXTT4=
EXTT5=
EXTT6=
EXTT7=
EXTT8=
EXTT9=
EXTT10=
EXTT11=
EXTT12=
EXTT13=
EXTT14=
EXTT15=
EXTT16=
EXTT17=
EXTT18=
EXTT19=
EXTT20=
EXTT21=
EXTT22=
EXTT23=
EXTT24=
EXTT25=
EXTT26=
EXTT27=
EXTT28=
EXTT29=
EXTT30=
PLAYORDER=
